<?xml version="1.0" encoding="UTF-8"?>
<svg version="1.1" xmlns="http://www.w3.org/2000/svg" width="500" height="500">
<path d="M0 0 C0.99 0 1.98 0 3 0 C2.14285714 8.57142857 2.14285714 8.57142857 0 12 C0.99 11.67 1.98 11.34 3 11 C5.73865287 10.92948886 8.45027588 10.90642235 11.1875 10.9375 C11.93708984 10.94201172 12.68667969 10.94652344 13.45898438 10.95117188 C15.30602383 10.96293646 17.15302213 10.98087135 19 11 C18.45765181 17.15773795 16.50302402 22.2250789 14.0625 27.875 C13.70220703 28.74125 13.34191406 29.6075 12.97070312 30.5 C10.25994742 36.87002629 10.25994742 36.87002629 8 38 C8.55635732 29.79372958 10.29515706 21.40968588 14 14 C9.05 14.66 4.1 15.32 -1 16 C-1.50660156 17.62808594 -1.50660156 17.62808594 -2.0234375 19.2890625 C-2.47392751 20.73438461 -2.92445007 22.17969657 -3.375 23.625 C-3.59671875 24.33785156 -3.8184375 25.05070312 -4.046875 25.78515625 C-5.32164924 29.87193248 -6.63079542 33.94357149 -8 38 C-8.66 38 -9.32 38 -10 38 C-8.87723429 30.94090922 -7.62436599 23.96156852 -6 17 C-9.96 17.495 -9.96 17.495 -14 18 C-14 16.68 -14 15.36 -14 14 C-10.7 13.67 -7.4 13.34 -4 13 C-3.525625 11.411875 -3.05125 9.82375 -2.5625 8.1875 C-1.74279395 5.44326671 -0.90577506 2.71732519 0 0 Z " fill="currentColor" transform="translate(64,187)"/>
<path d="M0 0 C-0.835628 4.62409693 -3.6483501 6.77676317 -7.0625 9.75 C-7.63033203 10.25660156 -8.19816406 10.76320313 -8.78320312 11.28515625 C-10.1819865 12.53113136 -11.59010733 13.76660973 -13 15 C-13.33 14.01 -13.66 13.02 -14 12 C-12.625 9.5 -12.625 9.5 -11 7 C-10.67 6.01 -10.34 5.02 -10 4 C-13.5837277 4.64365753 -17.16690971 5.29030432 -20.75 5.9375 C-21.76578125 6.11990234 -22.7815625 6.30230469 -23.828125 6.49023438 C-25.29765625 6.75610352 -25.29765625 6.75610352 -26.796875 7.02734375 C-28.14797363 7.27085571 -28.14797363 7.27085571 -29.52636719 7.51928711 C-31.08996892 7.82314931 -32.64725131 8.16383188 -34.19140625 8.5546875 C-36.26770332 9.06591399 -38.11532559 9.09807791 -40.25 9.0625 C-42.10625 9.0315625 -42.10625 9.0315625 -44 9 C-44.33 8.01 -44.66 7.02 -45 6 C-43.93563721 5.79318604 -42.87127441 5.58637207 -41.7746582 5.37329102 C-37.8143451 4.60373407 -33.8540668 3.83399814 -29.89379883 3.06420898 C-28.18189422 2.73147807 -26.46998025 2.39879526 -24.75805664 2.06616211 C-22.2931067 1.58720437 -19.82819078 1.10807189 -17.36328125 0.62890625 C-16.22080681 0.4069735 -16.22080681 0.4069735 -15.05525208 0.18055725 C-12.06819077 -0.40025153 -9.08804964 -0.97979691 -6.12182617 -1.66040039 C-3.45664759 -2.08696389 -2.24452914 -1.41322205 0 0 Z " fill="currentColor" transform="translate(75,104)"/>
<path d="M0 0 C0.99 0.33 1.98 0.66 3 1 C1.62118375 5.75005807 -0.45635907 9.71050791 -3.0625 13.875 C-3.88188581 15.21512162 -4.69954333 16.55630123 -5.515625 17.8984375 C-5.93134766 18.58131836 -6.34707031 19.26419922 -6.77539062 19.96777344 C-14.30290829 32.45961097 -20.92903923 45.45103561 -27.64453125 58.38916016 C-29.46183948 61.88957337 -31.28094274 65.38859495 -33.125 68.875 C-33.64320312 69.86242187 -34.16140625 70.84984375 -34.6953125 71.8671875 C-36 74 -36 74 -38 75 C-36.23041184 68.92544883 -33.43280834 63.36548584 -30.6875 57.6875 C-30.15842041 56.59099121 -29.62934082 55.49448242 -29.08422852 54.36474609 C-20.09021054 35.84306596 -10.5255996 17.69735083 0 0 Z " fill="currentColor" transform="translate(138,373)"/>
<path d="M0 0 C0.33 0.66 0.66 1.32 1 2 C1.886875 2.29003906 2.77375 2.58007812 3.6875 2.87890625 C14.08612039 6.39825065 23.46303569 15.61276755 31.99609375 22.41113281 C35.87414429 25.48598088 39.7818832 28.52280084 43.6875 31.5625 C44.46633545 32.17053467 45.2451709 32.77856934 46.04760742 33.4050293 C46.77826416 33.97390869 47.5089209 34.54278809 48.26171875 35.12890625 C48.91100342 35.63494385 49.56028809 36.14098145 50.22924805 36.66235352 C51.77784744 37.83218339 53.38516592 38.92344395 55 40 C55 40.66 55 41.32 55 42 C49.95236385 40.41527702 46.33353505 37.3581301 42.25 34.125 C29.28566566 24.04397415 15.88086959 14.76893461 2 6 C1.01 5.34 0.02 4.68 -1 4 C-0.67 2.68 -0.34 1.36 0 0 Z " fill="currentColor" transform="translate(37,59)"/>
<path d="M0 0 C3.84478875 1.45836815 5.1822915 3.36458299 7 7 C8.13352715 10.50900154 8.17049857 13.88700944 8.24609375 17.55859375 C8.27896484 18.83154297 8.31183594 20.10449219 8.34570312 21.41601562 C8.39307788 23.42809278 8.4375515 25.44013997 8.47680664 27.45239258 C8.51670703 29.40464434 8.56876508 31.35663558 8.62109375 33.30859375 C8.6461499 34.47189209 8.67120605 35.63519043 8.69702148 36.83374023 C8.99404253 39.93774176 9.68323014 42.19227391 11 45 C7.08039463 43.69346488 6.08012601 42.06450507 4.01220703 38.58984375 C1.9914871 33.41960808 2.66146619 27.95537795 2.9375 22.5 C3.33383944 14.12675977 3.57897137 8.21210305 -1 1 C-0.67 0.67 -0.34 0.34 0 0 Z " fill="currentColor" transform="translate(73,312)"/>
<path d="M0 0 C0.66 0 1.32 0 2 0 C2.32882285 7.12161062 1.0650345 13.60459981 -0.375 20.5625 C-2.269815 30.01995967 -3.93990436 39.41167229 -5 49 C-5.66 49 -6.32 49 -7 49 C-6.65432028 39.23752799 -5.95341178 29.61148639 -4.5625 19.9375 C-4.44028076 19.08260986 -4.31806152 18.22771973 -4.19213867 17.34692383 C-1.87309923 1.87309923 -1.87309923 1.87309923 0 0 Z " fill="currentColor" transform="translate(81,249)"/>
<path d="M0 0 C0.66 0.33 1.32 0.66 2 1 C-2.40804078 4.9625473 -6.87235672 8.74320145 -11.6484375 12.25390625 C-15.31259413 14.97463385 -18.91301856 17.77793583 -22.52026367 20.57348633 C-29.90221887 26.27555574 -29.90221887 26.27555574 -35 26 C-35.33 25.01 -35.66 24.02 -36 23 C-34.92250488 22.38886353 -34.92250488 22.38886353 -33.82324219 21.76538086 C-26.08642821 17.32214282 -18.64690621 12.55312869 -11.25 7.5625 C-10.15945312 6.83095703 -9.06890625 6.09941406 -7.9453125 5.34570312 C-5.2946995 3.5670023 -2.6463202 1.78507844 0 0 Z " fill="currentColor" transform="translate(110,390)"/>
<path d="M0 0 C-0.835628 4.62409693 -3.6483501 6.77676317 -7.0625 9.75 C-7.63033203 10.25660156 -8.19816406 10.76320313 -8.78320312 11.28515625 C-10.1819865 12.53113136 -11.59010733 13.76660973 -13 15 C-13.33 14.01 -13.66 13.02 -14 12 C-12.625 9.5 -12.625 9.5 -11 7 C-10.67 6.01 -10.34 5.02 -10 4 C-10.99 3.67 -11.98 3.34 -13 3 C-10.93860355 0.63321149 -9.49087373 -0.8281942 -6.5 -1.875 C-3.68599981 -2.01570001 -2.35695352 -1.48400777 0 0 Z " fill="currentColor" transform="translate(75,104)"/>
<path d="M0 0 C0.99 0 1.98 0 3 0 C4.02150413 5.68355681 4.01215436 10.99516786 3.6875 16.75 C3.65205078 17.59949219 3.61660156 18.44898438 3.58007812 19.32421875 C3.53689453 20.14019531 3.49371094 20.95617187 3.44921875 21.796875 C3.41143311 22.53260742 3.37364746 23.26833984 3.3347168 24.02636719 C3 26 3 26 1 29 C-1.19173639 24.61652721 -0.45148676 18.76269911 -0.625 13.9375 C-0.6765625 12.71482422 -0.728125 11.49214844 -0.78125 10.23242188 C-0.82507812 9.07162109 -0.86890625 7.91082031 -0.9140625 6.71484375 C-0.9548291 5.64355225 -0.9955957 4.57226074 -1.03759766 3.46850586 C-1 1 -1 1 0 0 Z " fill="currentColor" transform="translate(55,115)"/>
<path d="M0 0 C2.49361571 1.20381448 4.68143083 2.45428722 7 4 C7.66 3.34 8.32 2.68 9 2 C10.10228696 6.40914783 10.07654536 10.48382401 10 15 C9.34 15 8.68 15 8 15 C5 8.375 5 8.375 5 5 C4.34 5 3.68 5 3 5 C3.33 5.598125 3.66 6.19625 4 6.8125 C5 9 5 9 5 12 C1.2047869 10.50902342 -0.61042731 8.24299151 -3 5 C-2.01 5 -1.02 5 0 5 C0 3.35 0 1.7 0 0 Z " fill="currentColor" transform="translate(195,267)"/>
<path d="M0 0 C2.31 0.66 4.62 1.32 7 2 C7.33 4.31 7.66 6.62 8 9 C5.625 9.625 5.625 9.625 3 10 C2.34 9.34 1.68 8.68 1 8 C0.87625 9.134375 0.7525 10.26875 0.625 11.4375 C0.41875 12.613125 0.2125 13.78875 0 15 C-0.99 15.495 -0.99 15.495 -2 16 C-2.05423638 14.08364783 -2.09289963 12.16685075 -2.125 10.25 C-2.14820313 9.18265625 -2.17140625 8.1153125 -2.1953125 7.015625 C-2.00487687 4.07529894 -1.52670104 2.47638122 0 0 Z " fill="currentColor" transform="translate(326,216)"/>
<path d="M0 0 C1.32 0.33 2.64 0.66 4 1 C4.33 8.59 4.66 16.18 5 24 C4.01 23.67 3.02 23.34 2 23 C-0.02142314 17.79918615 -0.25650055 13.09058065 -0.125 7.5625 C-0.11597656 6.83095703 -0.10695312 6.09941406 -0.09765625 5.34570312 C-0.07436153 3.56365702 -0.0385019 1.78178241 0 0 Z " fill="currentColor" transform="translate(59,246)"/>
<path d="M0 0 C0.99 0 1.98 0 3 0 C2.77460524 5.63486889 1.26958199 10.27184895 -0.9375 15.4375 C-1.20256348 16.06479004 -1.46762695 16.69208008 -1.74072266 17.33837891 C-3.74037955 21.87018977 -3.74037955 21.87018977 -6 23 C-4.76363636 4.76363636 -4.76363636 4.76363636 0 0 Z " fill="currentColor" transform="translate(78,202)"/>
<path d="M0 0 C3.34373475 0.55728913 6.03312999 1.35173889 9 3 C9 3.66 9 4.32 9 5 C11.475 5.99 11.475 5.99 14 7 C14 7.66 14 8.32 14 9 C7.42528736 8.11494253 7.42528736 8.11494253 4.6875 7.375 C2.89389066 6.79030774 2.89389066 6.79030774 1 8 C1.66 8.33 2.32 8.66 3 9 C3 9.66 3 10.32 3 11 C0.625 10.75 0.625 10.75 -2 10 C-3.3125 7.9375 -3.3125 7.9375 -4 6 C-0.77208445 3.8480563 0.28400809 3.79913557 4 4 C2.68 2.68 1.36 1.36 0 0 Z " fill="currentColor" transform="translate(307,115)"/>
<path d="M0 0 C0.33 0.66 0.66 1.32 1 2 C1.87011719 2.2784375 2.74023438 2.556875 3.63671875 2.84375 C7.4900233 4.1684633 10.52861499 6.15597262 13.8125 8.5 C14.39708984 8.90347656 14.98167969 9.30695313 15.58398438 9.72265625 C19.86406948 12.72813895 19.86406948 12.72813895 21 15 C15.96221056 15.67042825 12.85549026 13.35687332 8.875 10.625 C8.25496094 10.2125 7.63492188 9.8 6.99609375 9.375 C5.32388706 8.26019554 3.66145349 7.1307681 2 6 C1.01 5.34 0.02 4.68 -1 4 C-0.67 2.68 -0.34 1.36 0 0 Z " fill="currentColor" transform="translate(37,59)"/>
<path d="M0 0 C0.99 0.33 1.98 0.66 3 1 C1.52677104 6.11250266 -0.72243948 10.34843706 -3.4375 14.875 C-3.83259766 15.56335938 -4.22769531 16.25171875 -4.63476562 16.9609375 C-5.66914006 18.69579513 -6.82659875 20.35598328 -8 22 C-8.99 22 -9.98 22 -11 22 C-10.35571752 18.88031641 -9.27757123 16.44126547 -7.71484375 13.671875 C-7.04291992 12.47304688 -7.04291992 12.47304688 -6.35742188 11.25 C-5.65456055 10.0125 -5.65456055 10.0125 -4.9375 8.75 C-4.46505859 7.90953125 -3.99261719 7.0690625 -3.50585938 6.203125 C-2.34142039 4.13301124 -1.1726855 2.06544986 0 0 Z " fill="currentColor" transform="translate(138,373)"/>
<path d="M0 0 C0.33 0.99 0.66 1.98 1 3 C-0.765625 5.671875 -0.765625 5.671875 -3.25 8.75 C-6.5915421 12.98805339 -9.25113193 16.869987 -11 22 C-11.99 22 -12.98 22 -14 22 C-14.93065133 19.39417629 -15.14917407 18.35801776 -14.0625 15.75 C-13.711875 15.1725 -13.36125 14.595 -13 14 C-12.01 14 -11.02 14 -10 14 C-9.61521484 13.15501953 -9.61521484 13.15501953 -9.22265625 12.29296875 C-7.85516033 9.72836777 -6.24083892 7.59020365 -4.4375 5.3125 C-3.81746094 4.52488281 -3.19742187 3.73726563 -2.55859375 2.92578125 C-1 1 -1 1 0 0 Z " fill="currentColor" transform="translate(405,90)"/>
<path d="M0 0 C0.515625 0.2475 1.03125 0.495 1.5625 0.75 C-2.84759417 5.60110358 -8.01754353 9.098107 -13.4375 12.75 C-13.7675 11.76 -14.0975 10.77 -14.4375 9.75 C-11.19001748 4.98026004 -6.31920675 -0.64812377 0 0 Z " fill="currentColor" transform="translate(199.4375,301.25)"/>
<path d="M0 0 C0.66 0 1.32 0 2 0 C1.53327934 4.91851768 0.26203365 7.45567504 -2.9375 11.1875 C-5.11133262 13.7558576 -7.13117612 16.19676418 -9 19 C-9.66 19 -10.32 19 -11 19 C-8.58565594 12.19593948 -4.94760058 5.28881441 0 0 Z " fill="currentColor" transform="translate(83,156)"/>
<path d="M0 0 C1.0209375 0.433125 1.0209375 0.433125 2.0625 0.875 C5.32893093 2.12597355 8.62846123 3.07447955 12 4 C12.38218767 5.65614657 12.71395102 7.32457024 13 9 C12 10 12 10 8.9375 10.0625 C7.968125 10.041875 6.99875 10.02125 6 10 C5.67 10.99 5.34 11.98 5 13 C4.01 13 3.02 13 2 13 C2.33 11.68 2.66 10.36 3 9 C3.99 9 4.98 9 6 9 C6 8.01 6 7.02 6 6 C4.01924973 4.63823419 2.01920337 3.30406884 0 2 C0 1.34 0 0.68 0 0 Z " fill="currentColor" transform="translate(314,127)"/>
<path d="M0 0 C0.66 0 1.32 0 2 0 C2 3.3 2 6.6 2 10 C1.01 10.495 1.01 10.495 0 11 C-0.90725434 13.11327425 -0.90725434 13.11327425 -1.625 15.5625 C-1.88539062 16.38878906 -2.14578125 17.21507812 -2.4140625 18.06640625 C-2.60742188 18.70449219 -2.80078125 19.34257812 -3 20 C-3.66 20 -4.32 20 -5 20 C-4.45484328 12.91296261 -2.39081395 6.67203894 0 0 Z " fill="currentColor" transform="translate(117,194)"/>
<path d="M0 0 C6.29785459 0.94592282 10.96066973 2.02158136 16 6 C15.67 6.99 15.34 7.98 15 9 C14.01 8.566875 13.02 8.13375 12 7.6875 C8.04692653 5.98986108 4.03655577 4.48715213 0 3 C0 2.01 0 1.02 0 0 Z " fill="currentColor" transform="translate(72,374)"/>
<path d="M0 0 C0.66 0 1.32 0 2 0 C0.44352176 5.30386878 -1.91055015 9.96038392 -4.5 14.8125 C-4.90347656 15.58787109 -5.30695313 16.36324219 -5.72265625 17.16210938 C-6.11324219 17.89880859 -6.50382812 18.63550781 -6.90625 19.39453125 C-7.26009766 20.06331299 -7.61394531 20.73209473 -7.97851562 21.42114258 C-9 23 -9 23 -11 24 C-9.42341672 18.82451456 -7.25856048 14.05799007 -4.9375 9.1875 C-4.57333984 8.41212891 -4.20917969 7.63675781 -3.83398438 6.83789062 C-1.13446065 1.13446065 -1.13446065 1.13446065 0 0 Z " fill="currentColor" transform="translate(111,424)"/>
<path d="M0 0 C0.66 0.33 1.32 0.66 2 1 C-1.99257826 4.58907301 -6.03153606 8.11506318 -10.25 11.4375 C-10.87390625 11.93121094 -11.4978125 12.42492187 -12.140625 12.93359375 C-14 14 -14 14 -18 14 C-18 13.34 -18 12.68 -18 12 C-16.34765625 10.67138672 -16.34765625 10.67138672 -14.0625 9.1796875 C-13.25039062 8.64472656 -12.43828125 8.10976563 -11.6015625 7.55859375 C-10.74304688 7.00300781 -9.88453125 6.44742187 -9 5.875 C-7.71222656 5.03001953 -7.71222656 5.03001953 -6.3984375 4.16796875 C-4.26960002 2.77239751 -2.13673026 1.38344445 0 0 Z " fill="currentColor" transform="translate(110,390)"/>
<path d="M0 0 C3.86004124 1.46415357 5.26672267 3.2858343 7 7 C7.6875 10.8125 7.6875 10.8125 8 14 C6.02 14.99 6.02 14.99 4 16 C3.89042969 15.33613281 3.78085938 14.67226563 3.66796875 13.98828125 C2.78863977 9.09120522 2.00548286 5.09838572 -1 1 C-0.67 0.67 -0.34 0.34 0 0 Z " fill="currentColor" transform="translate(73,312)"/>
<path d="M0 0 C0.66 0 1.32 0 2 0 C2.84069415 1.60032137 3.67231505 3.20541171 4.5 4.8125 C4.9640625 5.70582031 5.428125 6.59914063 5.90625 7.51953125 C7 10 7 10 7 13 C1.25 11.25 1.25 11.25 -1 9 C-1 8.01 -1 7.02 -1 6 C-0.34 6 0.32 6 1 6 C0.67 4.02 0.34 2.04 0 0 Z " fill="currentColor" transform="translate(180,272)"/>
<path d="M0 0 C1.32 0.33 2.64 0.66 4 1 C4 1.99 4 2.98 4 4 C3.12988281 4.03867187 3.12988281 4.03867187 2.2421875 4.078125 C-3.4281273 4.48983103 -6.48574403 5.58678207 -11 9 C-11.66 9 -12.32 9 -13 9 C-12.67 7.02 -12.34 5.04 -12 3 C-11.01 3.33 -10.02 3.66 -9 4 C-8.01 3.34 -7.02 2.68 -6 2 C-2.8125 1.875 -2.8125 1.875 0 2 C0 1.34 0 0.68 0 0 Z " fill="currentColor" transform="translate(291,260)"/>
<path d="M0 0 C0.66 0 1.32 0 2 0 C2.50692692 1.5811292 3.00526443 3.16501383 3.5 4.75 C3.7784375 5.63171875 4.056875 6.5134375 4.34375 7.421875 C5 10 5 10 5 14 C0.94276923 12.64758974 -0.49085419 10.39073758 -3 7 C-3 6.01 -3 5.02 -3 4 C-2 4 -1 4 0 4 C0 2.68 0 1.36 0 0 Z " fill="currentColor" transform="translate(122,204)"/>
<path d="M0 0 C2.37327851 3.55991776 2.78356356 5.74341661 3 10 C1.5625 13.4375 1.5625 13.4375 0 16 C-2.31 16 -4.62 16 -7 16 C-7 15.34 -7 14.68 -7 14 C-5.02 13.67 -3.04 13.34 -1 13 C-1.01160156 12.14535156 -1.02320313 11.29070312 -1.03515625 10.41015625 C-1.04417969 9.30542969 -1.05320312 8.20070312 -1.0625 7.0625 C-1.07410156 5.96035156 -1.08570313 4.85820312 -1.09765625 3.72265625 C-1 1 -1 1 0 0 Z " fill="currentColor" transform="translate(383,129)"/>
<path d="M0 0 C0.66 0 1.32 0 2 0 C1.46274105 3.37705625 0.88935377 6.696686 0 10 C1.65 10.99 3.3 11.98 5 13 C4.67 13.99 4.34 14.98 4 16 C1.03 14.02 -1.94 12.04 -5 10 C-4.67 9.34 -4.34 8.68 -4 8 C-3.34 8 -2.68 8 -2 8 C-1.7834375 6.576875 -1.7834375 6.576875 -1.5625 5.125 C-1 2 -1 2 0 0 Z " fill="currentColor" transform="translate(369,232)"/>
<path d="M0 0 C0.66 0 1.32 0 2 0 C3.13021285 2.26042571 3.26934344 3.92910996 3.5 6.4375 C3.75623248 9.21487706 4.10887489 11.32662467 5 14 C4.0625 16.1875 4.0625 16.1875 3 18 C2.34 18 1.68 18 1 18 C0.67 12.06 0.34 6.12 0 0 Z " fill="currentColor" transform="translate(160,266)"/>
<path d="M0 0 C0.66 0 1.32 0 2 0 C1.39288519 4.12838068 0.12477683 7.40422382 -2 11 C-2.99 11.33 -3.98 11.66 -5 12 C-5 13.98 -5 15.96 -5 18 C-5.99 18 -6.98 18 -8 18 C-7.6875 14.625 -7.6875 14.625 -7 11 C-6.01 10.34 -5.02 9.68 -4 9 C-2.77803891 6.82389333 -2.77803891 6.82389333 -1.8125 4.375 C-1.46832031 3.55773437 -1.12414062 2.74046875 -0.76953125 1.8984375 C-0.51558594 1.27195313 -0.26164062 0.64546875 0 0 Z " fill="currentColor" transform="translate(301,238)"/>
<path d="M0 0 C0.33 0 0.66 0 1 0 C1.66 4.95 2.32 9.9 3 15 C2.01 14.67 1.02 14.34 0 14 C-0.33 12.02 -0.66 10.04 -1 8 C-1.33 8.99 -1.66 9.98 -2 11 C-2.99 10.67 -3.98 10.34 -5 10 C-3.92598892 7.08482708 -3.22189824 5.22189824 -1 3 C-0.67 2.01 -0.34 1.02 0 0 Z " fill="currentColor" transform="translate(127,191)"/>
<path d="M0 0 C1.8125 0.1875 1.8125 0.1875 4 1 C7 5.17857143 7 5.17857143 7 8 C6.01 7.67 5.02 7.34 4 7 C3.67 6.34 3.34 5.68 3 5 C2.01 7.31 1.02 9.62 0 12 C-0.33 12 -0.66 12 -1 12 C-1.14285714 3.42857143 -1.14285714 3.42857143 0 0 Z " fill="currentColor" transform="translate(303,223)"/>
<path d="M0 0 C0.66 0.33 1.32 0.66 2 1 C-0.10820065 12.55024825 -0.10820065 12.55024825 -2 16 C-2.99 16.33 -3.98 16.66 -5 17 C-4.31115236 13.37030282 -3.46387675 9.81634398 -2.5 6.25 C-2.11328125 4.80367188 -2.11328125 4.80367188 -1.71875 3.328125 C-1 1 -1 1 0 0 Z " fill="currentColor" transform="translate(295,103)"/>
<path d="M0 0 C0 0.66 0 1.32 0 2 C-4.33804043 5.95527216 -9.18835924 8.88237678 -15 10 C-11.09965817 4.53952144 -6.91308242 0 0 0 Z " fill="currentColor" transform="translate(224,287)"/>
<path d="M0 0 C2.50678535 0.3457635 3.84891729 0.87496604 5.8125 2.5 C7.6437151 6.35518969 6.72807276 9.89472229 6 14 C5.01 14.33 4.02 14.66 3 15 C2.92652344 13.82630859 2.92652344 13.82630859 2.8515625 12.62890625 C2.77679688 11.61699219 2.70203125 10.60507813 2.625 9.5625 C2.55539062 8.55316406 2.48578125 7.54382813 2.4140625 6.50390625 C2.27742188 5.67761719 2.14078125 4.85132812 2 4 C1.34 3.67 0.68 3.34 0 3 C0 2.01 0 1.02 0 0 Z " fill="currentColor" transform="translate(442,77)"/>
<path d="M0 0 C-1.51495275 4.2418677 -4.36402593 5.57601729 -8 8 C-8.68177416 9.32567199 -9.35191436 10.65753688 -10 12 C-12.125 12.75 -12.125 12.75 -14 13 C-11.65038935 7.44637483 -6.67444979 0 0 0 Z " fill="currentColor" transform="translate(340,310)"/>
<path d="M0 0 C0.66 0 1.32 0 2 0 C1.43174347 5.54050113 -0.62886517 10.03715966 -3 15 C-3.66 15 -4.32 15 -5 15 C-4.43174347 9.45949887 -2.37113483 4.96284034 0 0 Z " fill="currentColor" transform="translate(384,188)"/>
<path d="M0 0 C4.1454174 0.57351648 7.01998356 2.9686238 10.25 5.4375 C10.80429688 5.84548828 11.35859375 6.25347656 11.9296875 6.67382812 C13.32810909 7.72953309 14.66950652 8.85987587 16 10 C16 10.66 16 11.32 16 12 C11.95775915 10.60411827 9.05851515 8.69435964 5.75 6 C4.87859375 5.29875 4.0071875 4.5975 3.109375 3.875 C1 2 1 2 0 0 Z " fill="currentColor" transform="translate(76,89)"/>
<path d="M0 0 C0.66 0.33 1.32 0.66 2 1 C2 4.96 2 8.92 2 13 C1.34 13 0.68 13 0 13 C-1.23221253 10.04268993 -2.35087445 7.14284955 -3 4 C-1.6875 1.4375 -1.6875 1.4375 0 0 Z " fill="currentColor" transform="translate(203,269)"/>
<path d="M0 0 C0.33 0 0.66 0 1 0 C1.33 5.61 1.66 11.22 2 17 C1.34 17 0.68 17 0 17 C-1.13130884 13.60607349 -1.1329194 10.94665128 -1.125 7.375 C-1.12886719 5.62316406 -1.12886719 5.62316406 -1.1328125 3.8359375 C-1 1 -1 1 0 0 Z " fill="currentColor" transform="translate(149,255)"/>
<path d="M0 0 C1.32 0 2.64 0 4 0 C3.53199289 4.05606165 3.12046792 7.46588679 1 11 C-1 9 -1 9 -1.1875 5.5 C-1 2 -1 2 0 0 Z " fill="currentColor" transform="translate(106,187)"/>
<path d="M0 0 C0.33 0.66 0.66 1.32 1 2 C1.66 2.33 2.32 2.66 3 3 C1.68 7.62 0.36 12.24 -1 17 C-1.66 17 -2.32 17 -3 17 C-2.68853528 15.10399631 -2.37578283 13.20820413 -2.0625 11.3125 C-1.88847656 10.25675781 -1.71445312 9.20101562 -1.53515625 8.11328125 C-1.06832879 5.39750396 -0.55577384 2.69875765 0 0 Z " fill="currentColor" transform="translate(57,208)"/>
<path d="M0 0 C0.74609375 1.734375 0.74609375 1.734375 1 4 C-0.65234375 6.140625 -0.65234375 6.140625 -2.9375 8.25 C-3.68902344 8.95640625 -4.44054687 9.6628125 -5.21484375 10.390625 C-5.80394531 10.92171875 -6.39304687 11.4528125 -7 12 C-7.33 11.01 -7.66 10.02 -8 9 C-7.109375 7.24609375 -7.109375 7.24609375 -5.75 5.4375 C-5.31171875 4.83808594 -4.8734375 4.23867187 -4.421875 3.62109375 C-3 2 -3 2 0 0 Z " fill="currentColor" transform="translate(432,122)"/>
<path d="M0 0 C0.66 0 1.32 0 2 0 C2.125 7.625 2.125 7.625 1 11 C0.01 11.33 -0.98 11.66 -2 12 C-2.17835515 7.45194365 -1.99785435 4.1205746 0 0 Z " fill="currentColor" transform="translate(81,249)"/>
<path d="M0 0 C0.66 0 1.32 0 2 0 C2 5.28 2 10.56 2 16 C1.34 16 0.68 16 0 16 C-0.38971999 13.89850989 -0.76131477 11.7936518 -1.125 9.6875 C-1.33382812 8.51574219 -1.54265625 7.34398437 -1.7578125 6.13671875 C-2 3 -2 3 0 0 Z " fill="currentColor" transform="translate(139,226)"/>
<path d="M0 0 C0.99 0 1.98 0 3 0 C2.25 7.75 2.25 7.75 0 10 C0 9.34 0 8.68 0 8 C-0.99 8 -1.98 8 -3 8 C-1.125 1.125 -1.125 1.125 0 0 Z " fill="currentColor" transform="translate(78,202)"/>
<path d="M0 0 C0.99 0.33 1.98 0.66 3 1 C1.68139111 5.61513112 -0.21355437 9.09897612 -3 13 C-3.75 11.375 -3.75 11.375 -4 9 C-2.71488126 6.96868328 -1.38123963 4.96722008 0 3 C0 2.01 0 1.02 0 0 Z " fill="currentColor" transform="translate(181,323)"/>
<path d="M0 0 C0.33 0 0.66 0 1 0 C1.19620767 2.06168985 1.38160753 4.12440998 1.5625 6.1875 C1.66691406 7.33605469 1.77132812 8.48460937 1.87890625 9.66796875 C1.98859985 12.68631199 1.74002389 15.08923936 1 18 C0.34 18 -0.32 18 -1 18 C-0.505 9.09 -0.505 9.09 0 0 Z " fill="currentColor" transform="translate(75,280)"/>
<path d="M0 0 C0.33 0 0.66 0 1 0 C1 3.63 1 7.26 1 11 C0.01 11 -0.98 11 -2 11 C-2.33 8.69 -2.66 6.38 -3 4 C-2.34 4 -1.68 4 -1 4 C-0.67 2.68 -0.34 1.36 0 0 Z " fill="currentColor" transform="translate(215,269)"/>
<path d="M0 0 C0.79921875 0.11085937 1.5984375 0.22171875 2.421875 0.3359375 C3.32679687 0.47902344 3.32679687 0.47902344 4.25 0.625 C4.25 1.285 4.25 1.945 4.25 2.625 C2.65119187 3.04194996 1.04558739 3.43290856 -0.5625 3.8125 C-1.45582031 4.03292969 -2.34914063 4.25335938 -3.26953125 4.48046875 C-5.75 4.625 -5.75 4.625 -7.57421875 3.17578125 C-7.96222656 2.66402344 -8.35023437 2.15226563 -8.75 1.625 C-5.5750906 -0.2828584 -3.64414789 -0.5359041 0 0 Z " fill="currentColor" transform="translate(67.75,198.375)"/>
<path d="M0 0 C0.66 0 1.32 0 2 0 C1.39254603 4.85963179 -0.72758967 8.7405518 -3 13 C-3.99 12.67 -4.98 12.34 -6 12 C-4.02 8.04 -2.04 4.08 0 0 Z " fill="currentColor" transform="translate(117,411)"/>
<path d="M0 0 C0.33 0 0.66 0 1 0 C1.04898438 1.09699219 1.09796875 2.19398438 1.1484375 3.32421875 C1.22350591 4.77866925 1.29905197 6.23309516 1.375 7.6875 C1.4059375 8.40873047 1.436875 9.12996094 1.46875 9.87304688 C1.69335587 13.97210394 2.17740909 17.24368459 4 21 C0.26360784 19.75453595 -0.18756513 18.36595047 -2 15 C-1.34 15 -0.68 15 0 15 C-0.33 14.01 -0.66 13.02 -1 12 C-0.91426773 9.93412885 -0.76166465 7.87053475 -0.5625 5.8125 C-0.46066406 4.72582031 -0.35882813 3.63914062 -0.25390625 2.51953125 C-0.17011719 1.68808594 -0.08632812 0.85664063 0 0 Z " fill="currentColor" transform="translate(80,336)"/>
<path d="M0 0 C0.66 0 1.32 0 2 0 C2.33 2.31 2.66 4.62 3 7 C3.66 7 4.32 7 5 7 C4.67 7.66 4.34 8.32 4 9 C3.01 9.33 2.02 9.66 1 10 C0.67 9.01 0.34 8.02 0 7 C-0.66 7 -1.32 7 -2 7 C-1.34 4.69 -0.68 2.38 0 0 Z " fill="currentColor" transform="translate(271,247)"/>
<path d="M0 0 C0.99 0.495 0.99 0.495 2 1 C2 5.95 2 10.9 2 16 C1.34 16.33 0.68 16.66 0 17 C0 11.39 0 5.78 0 0 Z " fill="currentColor" transform="translate(288,240)"/>
<path d="M0 0 C0.66 0.33 1.32 0.66 2 1 C2 1.66 2 2.32 2 3 C1.34 3 0.68 3 0 3 C-0.103125 3.598125 -0.20625 4.19625 -0.3125 4.8125 C-1.08876455 7.28243264 -2.07088921 8.32251235 -4 10 C-4.66 8.68 -5.32 7.36 -6 6 C-5.34 6 -4.68 6 -4 6 C-3.71125 5.38125 -3.4225 4.7625 -3.125 4.125 C-2 2 -2 2 0 0 Z " fill="currentColor" transform="translate(410,141)"/>
<path d="M0 0 C0.33 0 0.66 0 1 0 C0.88590318 2.10478604 0.75834639 4.20884577 0.625 6.3125 C0.52058594 8.07013672 0.52058594 8.07013672 0.4140625 9.86328125 C0 13 0 13 -2 16 C-2.05423638 14.08364783 -2.09289963 12.16685075 -2.125 10.25 C-2.14820312 9.18265625 -2.17140625 8.1153125 -2.1953125 7.015625 C-2.00487687 4.07529894 -1.52670104 2.47638122 0 0 Z " fill="currentColor" transform="translate(78,270)"/>
<path d="M0 0 C0.66 0.33 1.32 0.66 2 1 C3.00496852 4.01490557 3.10335303 6.04181692 3.0625 9.1875 C3.05347656 10.08855469 3.04445313 10.98960937 3.03515625 11.91796875 C3.02355469 12.60503906 3.01195312 13.29210937 3 14 C2.34 13.67 1.68 13.34 1 13 C0.33203125 10.3125 0.33203125 10.3125 -0.1875 7 C-0.36667969 5.906875 -0.54585938 4.81375 -0.73046875 3.6875 C-0.81941406 2.800625 -0.90835937 1.91375 -1 1 C-0.67 0.67 -0.34 0.34 0 0 Z " fill="currentColor" transform="translate(327,199)"/>
<path d="M0 0 C0.33 0 0.66 0 1 0 C1.05410687 1.77049689 1.09284119 3.54146849 1.125 5.3125 C1.14820312 6.29863281 1.17140625 7.28476563 1.1953125 8.30078125 C1 11 1 11 -1 14 C-2 13 -2 13 -2.1875 9.8125 C-2.00651269 6.13242468 -1.33113308 3.41102853 0 0 Z " fill="currentColor" transform="translate(112,195)"/>
<path d="M0 0 C0.33 0 0.66 0 1 0 C0.52060632 4.71403788 0.03165952 8.66579301 -2 13 C-2.66 13 -3.32 13 -4 13 C-3.50269348 8.02693484 -2.44697666 4.36200187 0 0 Z " fill="currentColor" transform="translate(343,193)"/>
<path d="M0 0 C0.99 0 1.98 0 3 0 C4.35439668 2.70879335 4.06501451 5.00933268 4 8 C3.01 8 2.02 8 1 8 C0 7 0 7 -0.0625 3.4375 C-0.041875 2.303125 -0.02125 1.16875 0 0 Z " fill="currentColor" transform="translate(65,154)"/>
<path d="M0 0 C1.41782145 0.06059066 2.83444466 0.14954123 4.25 0.25 C5.03890625 0.29640625 5.8278125 0.3428125 6.640625 0.390625 C9 1 9 1 13 5 C7.06 4.01 7.06 4.01 1 3 C0.67 2.01 0.34 1.02 0 0 Z " fill="currentColor" transform="translate(232,77)"/>
<path d="M0 0 C2.7824349 1.39121745 3.55210065 3.30164212 5 6 C5 6.66 5 7.32 5 8 C4.401875 7.814375 3.80375 7.62875 3.1875 7.4375 C0.83591238 6.77906313 0.83591238 6.77906313 -2 8 C-1.125 1.125 -1.125 1.125 0 0 Z " fill="currentColor" transform="translate(168,267)"/>
<path d="M0 0 C3.84685385 1.24762828 6.02929405 2.3870391 8 6 C7.67 6.99 7.34 7.98 7 9 C6.21625 8.34 5.4325 7.68 4.625 7 C2.28487188 4.79798559 2.28487188 4.79798559 0 5 C0 3.35 0 1.7 0 0 Z " fill="currentColor" transform="translate(202,262)"/>
<path d="M0 0 C0.99 0.495 0.99 0.495 2 1 C3.33350067 5.44500224 4.29175731 9.3318831 4 14 C2 13 2 13 0.875 9.8125 C0.08319763 6.36250398 -0.1714979 3.515707 0 0 Z " fill="currentColor" transform="translate(142,250)"/>
<path d="M0 0 C1.28222189 3.03070628 0.98589446 4.03596914 -0.25 7.1875 C-2 10 -2 10 -5 11 C-4.46884894 6.48521602 -2.63379708 3.65333143 0 0 Z " fill="currentColor" transform="translate(350,179)"/>
<path d="M0 0 C3.13190982 1.0799689 4.00599212 2.00950474 5.8125 4.875 C6.99119908 7.97683969 7.26070809 9.0201445 6 12 C5 10.33333333 4 8.66666667 3 7 C2.443125 6.113125 1.88625 5.22625 1.3125 4.3125 C0 2 0 2 0 0 Z " fill="currentColor" transform="translate(289,88)"/>
<path d="M0 0 C0.99 0.33 1.98 0.66 3 1 C1.52307692 6.66153846 1.52307692 6.66153846 -1.125 8.375 C-1.74375 8.58125 -2.3625 8.7875 -3 9 C-2.44271087 5.65626525 -1.64826111 2.96687001 0 0 Z " fill="currentColor" transform="translate(138,373)"/>
<path d="M0 0 C0.33 0.99 0.66 1.98 1 3 C0.67 3.66 0.34 4.32 0 5 C-0.22467831 6.53668865 -0.40796805 8.07968054 -0.5625 9.625 C-0.64628906 10.44226563 -0.73007813 11.25953125 -0.81640625 12.1015625 C-0.87699219 12.72804688 -0.93757812 13.35453125 -1 14 C-1.66 13.67 -2.32 13.34 -3 13 C-3.4726477 4.80743982 -3.4726477 4.80743982 -1.5 1.4375 C-0.7575 0.7259375 -0.7575 0.7259375 0 0 Z " fill="currentColor" transform="translate(175,343)"/>
<path d="M0 0 C0.66 0 1.32 0 2 0 C1.69121904 3.60244452 1.00552268 4.99345998 -1.375 7.8125 C-4 10 -4 10 -7 10 C-7 9.34 -7 8.68 -7 8 C-6.38125 7.938125 -5.7625 7.87625 -5.125 7.8125 C-2.74397155 7.17948312 -2.74397155 7.17948312 -1.8125 4.5625 C-1.4103125 3.2940625 -1.4103125 3.2940625 -1 2 C-0.67 1.34 -0.34 0.68 0 0 Z " fill="currentColor" transform="translate(385,263)"/>
<path d="M0 0 C0.99 0 1.98 0 3 0 C3.33 3.3 3.66 6.6 4 10 C3.01 9.67 2.02 9.34 1 9 C0.67 6.03 0.34 3.06 0 0 Z " fill="currentColor" transform="translate(71,151)"/>
<path d="M0 0 C0.99 0 1.98 0 3 0 C3.05422947 1.4370809 3.09289723 2.87475462 3.125 4.3125 C3.14820313 5.11300781 3.17140625 5.91351563 3.1953125 6.73828125 C3 9 3 9 1 12 C-0.26237731 9.47524538 -0.09856404 7.68799534 -0.0625 4.875 C-0.05347656 3.96492187 -0.04445312 3.05484375 -0.03515625 2.1171875 C-0.02355469 1.41851562 -0.01195312 0.71984375 0 0 Z " fill="currentColor" transform="translate(55,132)"/>
<path d="M0 0 C0.33 0.66 0.66 1.32 1 2 C2.97888961 2.72693904 4.97954558 3.39816251 7 4 C7 4.99 7 5.98 7 7 C3.62537285 6.45276317 1.91765 5.9451 -1 4 C-0.67 2.68 -0.34 1.36 0 0 Z " fill="currentColor" transform="translate(37,59)"/>
<path d="M0 0 C0.33 0 0.66 0 1 0 C1.2493357 1.60115576 1.47378648 3.20620159 1.6875 4.8125 C1.87892578 6.15248047 1.87892578 6.15248047 2.07421875 7.51953125 C2 10 2 10 0.51953125 11.82421875 C-0.23263672 12.40623047 -0.23263672 12.40623047 -1 13 C-1.02686553 11.02090602 -1.04633375 9.04171029 -1.0625 7.0625 C-1.07410156 5.96035156 -1.08570313 4.85820312 -1.09765625 3.72265625 C-1 1 -1 1 0 0 Z " fill="currentColor" transform="translate(325,219)"/>
<path d="M0 0 C0.66 0 1.32 0 2 0 C0.61811547 3.21043882 -0.92421903 5.04936365 -3.625 7.25 C-4.57246094 8.03117188 -4.57246094 8.03117188 -5.5390625 8.828125 C-6.02117187 9.21484375 -6.50328125 9.6015625 -7 10 C-6.20097177 5.74154273 -4.16166487 3.92454 -1 1 C-0.67 0.67 -0.34 0.34 0 0 Z " fill="currentColor" transform="translate(116,171)"/>
<path d="M0 0 C1.9375 0.8125 1.9375 0.8125 4 2 C4.33 2.99 4.66 3.98 5 5 C3.35 4.67 1.7 4.34 0 4 C-0.99 5.485 -0.99 5.485 -2 7 C-2.66 7 -3.32 7 -4 7 C-2.92598892 4.08482708 -2.22189824 2.22189824 0 0 Z " fill="currentColor" transform="translate(389,98)"/>
<path d="M0 0 C0.66 0 1.32 0 2 0 C2.84098656 4.01804691 3.05404945 7.01803543 2 11 C0.68 10.34 -0.64 9.68 -2 9 C-1.67 7.88625 -1.34 6.7725 -1 5.625 C0.088643 2.30540283 0.088643 2.30540283 0 0 Z " fill="currentColor" transform="translate(437,65)"/>
<path d="M0 0 C0.99 0 1.98 0 3 0 C2.71890887 1.64767247 2.42481474 3.29313145 2.125 4.9375 C1.96257812 5.85402344 1.80015625 6.77054687 1.6328125 7.71484375 C1.42398438 8.46894531 1.21515625 9.22304688 1 10 C0.01 10.495 0.01 10.495 -1 11 C-0.67 7.37 -0.34 3.74 0 0 Z " fill="currentColor" transform="translate(181,468)"/>
<path d="M0 0 C0.66 0 1.32 0 2 0 C3.19287411 3.87684087 4 6.91621923 4 11 C3.34 11 2.68 11 2 11 C0.80712589 7.12315913 0 4.08378077 0 0 Z " fill="currentColor" transform="translate(353,409)"/>
<path d="M0 0 C2.31 0.33 4.62 0.66 7 1 C7 2.32 7 3.64 7 5 C4.03 4.505 4.03 4.505 1 4 C0.67 2.68 0.34 1.36 0 0 Z " fill="currentColor" transform="translate(72,374)"/>
<path d="M0 0 C2.46254526 2.1413437 3.69050349 3.69870394 4 7 C3.01 8.485 3.01 8.485 2 10 C-1.125 3.375 -1.125 3.375 0 0 Z " fill="currentColor" transform="translate(333,339)"/>
<path d="M0 0 C0.33 0.99 0.66 1.98 1 3 C-0.28813342 3.83878455 -1.58063256 4.67086783 -2.875 5.5 C-3.59429687 5.9640625 -4.31359375 6.428125 -5.0546875 6.90625 C-7 8 -7 8 -9 8 C-7.50164772 3.33845958 -4.11536409 2.13389249 0 0 Z " fill="currentColor" transform="translate(353,297)"/>
<path d="M0 0 C0.33 0.99 0.66 1.98 1 3 C0.319375 3.5878125 0.319375 3.5878125 -0.375 4.1875 C-2.27642919 6.30832487 -3.06204028 8.33042235 -4 11 C-4.66 10.01 -5.32 9.02 -6 8 C-3.375 2.25 -3.375 2.25 0 0 Z " fill="currentColor" transform="translate(267,257)"/>
<path d="M0 0 C0.66 0 1.32 0 2 0 C2.50615298 1.26839526 3.00469099 2.53983102 3.5 3.8125 C3.91765625 4.87404297 3.91765625 4.87404297 4.34375 5.95703125 C5 8 5 8 5 11 C4.34 11 3.68 11 3 11 C0 4.5 0 4.5 0 0 Z " fill="currentColor" transform="translate(131,210)"/>
<path d="M0 0 C2.31 0 4.62 0 7 0 C7.33 0.99 7.66 1.98 8 3 C5.36 3.33 2.72 3.66 0 4 C0 2.68 0 1.36 0 0 Z " fill="currentColor" transform="translate(50,201)"/>
<path d="M0 0 C5.23175837 -0.38281159 8.37802694 0.78145293 13 3 C12.34 3.66 11.68 4.32 11 5 C7.37 3.68 3.74 2.36 0 1 C0 0.67 0 0.34 0 0 Z " fill="currentColor" transform="translate(170,418)"/>
<path d="M0 0 C0.66 0 1.32 0 2 0 C3.59138085 4.17737474 4.21278058 7.53160785 4 12 C1.49484216 9.49484216 0.94900914 7.38931835 0 4 C0 2.68 0 1.36 0 0 Z " fill="currentColor" transform="translate(345,376)"/>
<path d="M0 0 C2.99324263 1.0975223 3.84610901 1.67682892 5.25 4.625 C5.4975 5.40875 5.745 6.1925 6 7 C5.34 7 4.68 7 4 7 C3.67 7.66 3.34 8.32 3 9 C1.68 6.36 0.36 3.72 -1 1 C-0.67 0.67 -0.34 0.34 0 0 Z " fill="currentColor" transform="translate(73,312)"/>
<path d="M0 0 C0.33 0.99 0.66 1.98 1 3 C-0.21484375 5.04296875 -0.21484375 5.04296875 -1.9375 7.1875 C-2.50339844 7.90292969 -3.06929688 8.61835938 -3.65234375 9.35546875 C-4.09707031 9.89816406 -4.54179687 10.44085938 -5 11 C-5.33 10.01 -5.66 9.02 -6 8 C-4.78515625 5.95703125 -4.78515625 5.95703125 -3.0625 3.8125 C-2.49660156 3.09707031 -1.93070312 2.38164062 -1.34765625 1.64453125 C-0.90292969 1.10183594 -0.45820313 0.55914062 0 0 Z " fill="currentColor" transform="translate(360,163)"/>
<path d="M0 0 C0 0.66 0 1.32 0 2 C-6.625 5.125 -6.625 5.125 -10 4 C-6.83527002 0.53386716 -4.79371499 0 0 0 Z " fill="currentColor" transform="translate(202,77)"/>
<path d="M0 0 C2.75 -0.25 2.75 -0.25 6 0 C8.375 2 8.375 2 10 4 C9.01 4.66 8.02 5.32 7 6 C5.83054208 5.19152271 4.66449539 4.37810888 3.5 3.5625 C2.8503125 3.11003906 2.200625 2.65757813 1.53125 2.19140625 C1.0259375 1.79824219 0.520625 1.40507813 0 1 C0 0.67 0 0.34 0 0 Z " fill="currentColor" transform="translate(54,74)"/>
<path d="M0 0 C0.66 0 1.32 0 2 0 C0.47291037 3.43595166 -1.59927045 6.11912454 -4 9 C-4.99 8.67 -5.98 8.34 -7 8 C-5.88200014 6.66079162 -4.75538103 5.32877444 -3.625 4 C-2.68527344 2.88625 -2.68527344 2.88625 -1.7265625 1.75 C-1.15679687 1.1725 -0.58703125 0.595 0 0 Z " fill="currentColor" transform="translate(426,71)"/>
<path d="M0 0 C0.99 0.66 1.98 1.32 3 2 C1.68 4.64 0.36 7.28 -1 10 C-1.66 8.68 -2.32 7.36 -3 6 C-1.625 2.75 -1.625 2.75 0 0 Z " fill="currentColor" transform="translate(121,403)"/>
<path d="M0 0 C0.66 0 1.32 0 2 0 C0.14285714 8.71428571 0.14285714 8.71428571 -3 11 C-2.44894091 7.0507432 -1.61064629 3.65079826 0 0 Z " fill="currentColor" transform="translate(169,396)"/>
<path d="M0 0 C2.0343459 1.41519715 2.90410393 2.54982123 3.421875 4.98046875 C3.66273952 6.98176954 3.83532741 8.9909944 4 11 C3.34 11 2.68 11 2 11 C0.80712589 7.12315913 0 4.08378077 0 0 Z " fill="currentColor" transform="translate(340,359)"/>
<path d="M0 0 C0.66 0.33 1.32 0.66 2 1 C-0.475 5.455 -0.475 5.455 -3 10 C-3.66 9.34 -4.32 8.68 -5 8 C-1.125 1.125 -1.125 1.125 0 0 Z " fill="currentColor" transform="translate(338,207)"/>
<path d="M0 0 C2 3 2 3 1.7578125 5.26171875 C1.54898438 6.06222656 1.34015625 6.86273438 1.125 7.6875 C0.92132813 8.49574219 0.71765625 9.30398437 0.5078125 10.13671875 C0.25644531 11.05904297 0.25644531 11.05904297 0 12 C-0.66 12 -1.32 12 -2 12 C-1 3.42857143 -1 3.42857143 0 0 Z " fill="currentColor" transform="translate(114,202)"/>
<path d="M0 0 C3 1 3 1 4.1875 3.3125 C5 6 5 6 5 10 C4.34 10 3.68 10 3 10 C0 3.375 0 3.375 0 0 Z " fill="currentColor" transform="translate(319,180)"/>
<path d="M0 0 C3.43752007 1.5277867 6.18953688 3.50181056 9 6 C9 6.66 9 7.32 9 8 C5.08158173 6.69386058 2.67359191 5.16870152 0 2 C0 1.34 0 0.68 0 0 Z " fill="currentColor" transform="translate(306,164)"/>
<path d="M0 0 C3.34373475 0.55728913 6.03312999 1.35173889 9 3 C9 3.66 9 4.32 9 5 C9.66 5.33 10.32 5.66 11 6 C6.48986609 5.46939601 3.61621781 3.69113883 0 1 C0 0.67 0 0.34 0 0 Z " fill="currentColor" transform="translate(307,115)"/>
<path d="M0 0 C3.63 0 7.26 0 11 0 C11 0.66 11 1.32 11 2 C7.7 2.33 4.4 2.66 1 3 C0.67 2.01 0.34 1.02 0 0 Z " fill="currentColor" transform="translate(205,76)"/>
<path d="M0 0 C0.66 0.33 1.32 0.66 2 1 C2 3.31 2 5.62 2 8 C1.01 8 0.02 8 -1 8 C-1.04241723 5.66705225 -1.04092937 3.33297433 -1 1 C-0.67 0.67 -0.34 0.34 0 0 Z " fill="currentColor" transform="translate(184,455)"/>
<path d="M0 0 C0.66 0.99 1.32 1.98 2 3 C-0.97 7.95 -0.97 7.95 -4 13 C-4.33 12.34 -4.66 11.68 -5 11 C-4.00390625 8.3984375 -4.00390625 8.3984375 -2.5625 5.375 C-2.08941406 4.37210937 -1.61632812 3.36921875 -1.12890625 2.3359375 C-0.75636719 1.56507813 -0.38382812 0.79421875 0 0 Z " fill="currentColor" transform="translate(105,435)"/>
<path d="M0 0 C2 2 2 2 2.1953125 4.1640625 C2.16050781 5.38222656 2.16050781 5.38222656 2.125 6.625 C2.10695313 7.44226563 2.08890625 8.25953125 2.0703125 9.1015625 C2.04710937 9.72804688 2.02390625 10.35453125 2 11 C1.34 11 0.68 11 0 11 C-0.19406478 9.35492782 -0.38007935 7.70890406 -0.5625 6.0625 C-0.66691406 5.14597656 -0.77132813 4.22945313 -0.87890625 3.28515625 C-0.91886719 2.53105469 -0.95882813 1.77695312 -1 1 C-0.67 0.67 -0.34 0.34 0 0 Z " fill="currentColor" transform="translate(357,425)"/>
<path d="M0 0 C0.66 0 1.32 0 2 0 C2.05399736 1.45792884 2.09279177 2.91642712 2.125 4.375 C2.14820313 5.18710937 2.17140625 5.99921875 2.1953125 6.8359375 C2 9 2 9 0 11 C-1.05404945 7.01803543 -0.84098656 4.01804691 0 0 Z " fill="currentColor" transform="translate(174,370)"/>
<path d="M0 0 C3.96 1.98 3.96 1.98 8 4 C7.67 4.99 7.34 5.98 7 7 C4.36 5.35 1.72 3.7 -1 2 C-0.67 1.34 -0.34 0.68 0 0 Z " fill="currentColor" transform="translate(366,241)"/>
<path d="M0 0 C0.66 0.33 1.32 0.66 2 1 C1.34 3.31 0.68 5.62 0 8 C-0.99 8 -1.98 8 -3 8 C-1.125 1.125 -1.125 1.125 0 0 Z " fill="currentColor" transform="translate(178,481)"/>
<path d="M0 0 C0.66 0 1.32 0 2 0 C4.1875 2.75 4.1875 2.75 6 6 C5.61328125 8.203125 5.61328125 8.203125 5 10 C4.16121545 8.71186658 3.32913217 7.41936744 2.5 6.125 C2.0359375 5.40570313 1.571875 4.68640625 1.09375 3.9453125 C0 2 0 2 0 0 Z " fill="currentColor" transform="translate(362,456)"/>
<path d="M0 0 C0.66 0 1.32 0 2 0 C2.33 3.3 2.66 6.6 3 10 C2.34 10 1.68 10 1 10 C0.67 6.7 0.34 3.4 0 0 Z " fill="currentColor" transform="translate(358,440)"/>
<path d="M0 0 C0.66 0.33 1.32 0.66 2 1 C-1.96 4.465 -1.96 4.465 -6 8 C-6.99 7.34 -7.98 6.68 -9 6 C-6.03 4.02 -3.06 2.04 0 0 Z " fill="currentColor" transform="translate(110,390)"/>
<path d="M0 0 C0.33 0 0.66 0 1 0 C1.17942163 3.94727588 1.09350689 6.5980513 -1 10 C-1.66 10 -2.32 10 -3 10 C-2.69201674 8.51988629 -2.378482 7.04092675 -2.0625 5.5625 C-1.88847656 4.73878906 -1.71445313 3.91507812 -1.53515625 3.06640625 C-1 1 -1 1 0 0 Z " fill="currentColor" transform="translate(174,383)"/>
<path d="M0 0 C0.99 0.33 1.98 0.66 3 1 C1.35 2.65 -0.3 4.3 -2 6 C-2.99 5.67 -3.98 5.34 -5 5 C-3.35 3.35 -1.7 1.7 0 0 Z " fill="currentColor" transform="translate(361,289)"/>
<path d="M0 0 C0.33 0.99 0.66 1.98 1 3 C0.34 3 -0.32 3 -1 3 C-1 4.98 -1 6.96 -1 9 C-1.99 9 -2.98 9 -4 9 C-3.6875 5.625 -3.6875 5.625 -3 2 C-2.01 1.34 -1.02 0.68 0 0 Z " fill="currentColor" transform="translate(297,247)"/>
<path d="M0 0 C0.66 0 1.32 0 2 0 C1.44271087 3.34373475 0.64826111 6.03312999 -1 9 C-1.33 9 -1.66 9 -2 9 C-2.125 5.625 -2.125 5.625 -2 2 C-1.34 1.34 -0.68 0.68 0 0 Z " fill="currentColor" transform="translate(115,179)"/>
<path d="M0 0 C0.66 0 1.32 0 2 0 C1.67 1.98 1.34 3.96 1 6 C0.01 6 -0.98 6 -2 6 C-2.99 6.66 -3.98 7.32 -5 8 C-3.63055898 5.05043472 -2.12169591 2.47531189 0 0 Z " fill="currentColor" transform="translate(83,156)"/>
<path d="M0 0 C-0.33 0.99 -0.66 1.98 -1 3 C-3.375 3.625 -3.375 3.625 -6 4 C-6.66 3.34 -7.32 2.68 -8 2 C-4.77208445 -0.1519437 -3.71599191 -0.20086443 0 0 Z " fill="currentColor" transform="translate(65,104)"/>
<path d="M0 0 C2.31 0.33 4.62 0.66 7 1 C7 1.66 7 2.32 7 3 C1.25 4.125 1.25 4.125 -1 3 C-0.67 2.01 -0.34 1.02 0 0 Z " fill="currentColor" transform="translate(220,74)"/>
<path d="M0 0 C0.99 0.33 1.98 0.66 3 1 C3 3.31 3 5.62 3 8 C2.34 8 1.68 8 1 8 C-0.35439668 5.29120665 -0.06501451 2.99066732 0 0 Z " fill="currentColor" transform="translate(370,469)"/>
<path d="M0 0 C0.99 0.33 1.98 0.66 3 1 C3.625 4.375 3.625 4.375 4 8 C3.34 8.66 2.68 9.32 2 10 C1.34 6.7 0.68 3.4 0 0 Z " fill="currentColor" transform="translate(349,393)"/>
<path d="M0 0 C0.66 0.33 1.32 0.66 2 1 C-3.14285714 6.57142857 -3.14285714 6.57142857 -7 7 C-4.78071806 4.09197539 -3.07030857 2.04687238 0 0 Z " fill="currentColor" transform="translate(216,290)"/>
<path d="M0 0 C0.66 0 1.32 0 2 0 C1.67 3.3 1.34 6.6 1 10 C0.34 9.67 -0.32 9.34 -1 9 C-1.125 2.25 -1.125 2.25 0 0 Z " fill="currentColor" transform="translate(280,252)"/>
<path d="M0 0 C2.475 0.495 2.475 0.495 5 1 C3.75023244 4.65316671 3.32901247 5.78065836 0 8 C0 5.36 0 2.72 0 0 Z " fill="currentColor" transform="translate(326,216)"/>
<path d="M0 0 C2.32472205 2.85306797 3.7508258 5.54074837 5 9 C3.125 8.375 3.125 8.375 1 7 C-0.25 3.875 -0.25 3.875 -1 1 C-0.67 0.67 -0.34 0.34 0 0 Z " fill="currentColor" transform="translate(110,151)"/>
<path d="M0 0 C0.99 0 1.98 0 3 0 C2.45773019 3.79588866 0.79872437 5.47211993 -2 8 C-1.125 2.25 -1.125 2.25 0 0 Z " fill="currentColor" transform="translate(442,104)"/>
<path d="M0 0 C0 0.66 0 1.32 0 2 C-2.97 2 -5.94 2 -9 2 C-9 1.34 -9 0.68 -9 0 C-5.93109813 -1.53445094 -3.29905734 -0.54984289 0 0 Z " fill="currentColor" transform="translate(275,81)"/>
<path d="M0 0 C0.66 0.33 1.32 0.66 2 1 C2 3.31 2 5.62 2 8 C1.01 8.495 1.01 8.495 0 9 C-0.87890625 2.84765625 -0.87890625 2.84765625 -1 1 C-0.67 0.67 -0.34 0.34 0 0 Z " fill="currentColor" transform="translate(222,275)"/>
<path d="M0 0 C2.97 0.495 2.97 0.495 6 1 C4.37660195 2.70884005 2.70680947 4.37446717 1 6 C0.34 6 -0.32 6 -1 6 C-0.67 4.02 -0.34 2.04 0 0 Z " fill="currentColor" transform="translate(279,263)"/>
<path d="M0 0 C0.33 0.66 0.66 1.32 1 2 C-0.61594832 4.04119788 -2.2856382 6.04072937 -4 8 C-4.66 8 -5.32 8 -6 8 C-4.55746343 4.63408134 -2.66735273 2.48952921 0 0 Z " fill="currentColor" transform="translate(405,158)"/>
<path d="M0 0 C2.97 0 5.94 0 9 0 C9 0.33 9 0.66 9 1 C7.02 1 5.04 1 3 1 C2.67 1.99 2.34 2.98 2 4 C1.01 4 0.02 4 -1 4 C-0.67 2.68 -0.34 1.36 0 0 Z " fill="currentColor" transform="translate(317,136)"/>
<path d="M0 0 C4.455 0.99 4.455 0.99 9 2 C9 2.66 9 3.32 9 4 C2.25 3.125 2.25 3.125 0 2 C0 1.34 0 0.68 0 0 Z " fill="currentColor" transform="translate(312,120)"/>
<path d="M0 0 C1.32 0 2.64 0 4 0 C3.67 1.65 3.34 3.3 3 5 C2.01 5 1.02 5 0 5 C-0.5625 3.0625 -0.5625 3.0625 -1 1 C-0.67 0.67 -0.34 0.34 0 0 Z " fill="currentColor" transform="translate(391,107)"/>
<path d="M0 0 C2.5654594 2.5654594 2.54046087 4.47686668 3 8 C1.68 7.67 0.36 7.34 -1 7 C-1.04254356 5.00045254 -1.04080783 2.99958364 -1 1 C-0.67 0.67 -0.34 0.34 0 0 Z " fill="currentColor" transform="translate(185,77)"/>
<path d="M0 0 C3.26954202 0.56371414 4.82575883 1.49962266 7 4 C6.67 4.99 6.34 5.98 6 7 C3.95880212 5.38405168 1.95927063 3.7143618 0 2 C0 1.34 0 0.68 0 0 Z " fill="currentColor" transform="translate(376,249)"/>
<path d="M0 0 C0.99 0.33 1.98 0.66 3 1 C1.37660195 2.70884005 -0.29319053 4.37446717 -2 6 C-2.66 6 -3.32 6 -4 6 C-2.84826645 3.53199953 -1.95216435 1.95216435 0 0 Z " fill="currentColor" transform="translate(307,149)"/>
<path d="M0 0 C0.66 0 1.32 0 2 0 C1.67 2.31 1.34 4.62 1 7 C0.01 7.33 -0.98 7.66 -2 8 C-1.125 2.25 -1.125 2.25 0 0 Z " fill="currentColor" transform="translate(142,115)"/>
<path d="M0 0 C0.66 0 1.32 0 2 0 C2.33 2.31 2.66 4.62 3 7 C2.01 6.67 1.02 6.34 0 6 C0 4.02 0 2.04 0 0 Z " fill="currentColor" transform="translate(182,445)"/>
<path d="M0 0 C0.33 0 0.66 0 1 0 C1 3.3 1 6.6 1 10 C0.34 9.67 -0.32 9.34 -1 9 C-1.09765625 2.84765625 -1.09765625 2.84765625 -1 1 C-0.67 0.67 -0.34 0.34 0 0 Z " fill="currentColor" transform="translate(182,426)"/>
<path d="M0 0 C2.03833424 1.2739589 4.03852126 2.61061923 6 4 C6 4.66 6 5.32 6 6 C2.62496331 4.8141763 0.35277269 3.72426311 -2 1 C-1.34 0.67 -0.68 0.34 0 0 Z " fill="currentColor" transform="translate(180,266)"/>
<path d="M0 0 C-1.39332574 3.36720387 -2.9789286 4.9859524 -6 7 C-6 4 -6 4 -4.125 1.8125 C-2 0 -2 0 0 0 Z " fill="currentColor" transform="translate(308,251)"/>
<path d="M0 0 C0.66 0.66 1.32 1.32 2 2 C1.34 4.31 0.68 6.62 0 9 C-0.66 9 -1.32 9 -2 9 C-1.125 2.25 -1.125 2.25 0 0 Z " fill="currentColor" transform="translate(374,214)"/>
<path d="M0 0 C2.1519437 3.22791555 2.20086443 4.28400809 2 8 C1.34 8 0.68 8 0 8 C-0.38063221 5.6739143 -0.71269945 3.33944736 -1 1 C-0.67 0.67 -0.34 0.34 0 0 Z " fill="currentColor" transform="translate(383,129)"/>
<path d="M0 0 C4.75 1.875 4.75 1.875 7 3 C6.67 3.99 6.34 4.98 6 6 C3.96166576 4.7260411 1.96147874 3.38938077 0 2 C0 1.34 0 0.68 0 0 Z " fill="currentColor" transform="translate(314,127)"/>
<path d="M0 0 C0.66 0 1.32 0 2 0 C2 2.97 2 5.94 2 9 C1.34 9 0.68 9 0 9 C0 6.03 0 3.06 0 0 Z " fill="currentColor" transform="translate(380,118)"/>
<path d="M0 0 C0.6875 1.8125 0.6875 1.8125 1 4 C-0.3125 5.75 -0.3125 5.75 -2 7 C-2.66 7 -3.32 7 -4 7 C-2.92598892 4.08482708 -2.22189824 2.22189824 0 0 Z " fill="currentColor" transform="translate(439,113)"/>
<path d="M0 0 C0.66 0.99 1.32 1.98 2 3 C1.01 4.485 1.01 4.485 0 6 C-1.32 5.67 -2.64 5.34 -4 5 C-3.67 4.01 -3.34 3.02 -3 2 C-2.01 2 -1.02 2 0 2 C0 1.34 0 0.68 0 0 Z " fill="currentColor" transform="translate(395,102)"/>
<path d="M0 0 C2.99324263 1.0975223 3.84610901 1.67682892 5.25 4.625 C5.4975 5.40875 5.745 6.1925 6 7 C3.00675737 5.9024777 2.15389099 5.32317108 0.75 2.375 C0.5025 1.59125 0.255 0.8075 0 0 Z " fill="currentColor" transform="translate(372,489)"/>
<path d="M0 0 C1.9451 2.91765 2.45276317 4.62537285 3 8 C2.01 8.495 2.01 8.495 1 9 C-1.09230769 4.56923077 -1.09230769 4.56923077 -0.625 1.6875 C-0.41875 1.130625 -0.2125 0.57375 0 0 Z " fill="currentColor" transform="translate(329,324)"/>
<path d="M0 0 C0.99 0.33 1.98 0.66 3 1 C3 2.98 3 4.96 3 7 C2.34 7 1.68 7 1 7 C0.67 4.69 0.34 2.38 0 0 Z " fill="currentColor" transform="translate(202,275)"/>
<path d="M0 0 C0.66 0 1.32 0 2 0 C2.33 2.31 2.66 4.62 3 7 C2.01 6.67 1.02 6.34 0 6 C0 4.02 0 2.04 0 0 Z " fill="currentColor" transform="translate(124,211)"/>
<path d="M0 0 C0.66 0 1.32 0 2 0 C1.50168276 3.68754757 0.89932357 5.60490662 -2 8 C-1.125 2.25 -1.125 2.25 0 0 Z " fill="currentColor" transform="translate(392,175)"/>
<path d="M0 0 C0.66 0.66 1.32 1.32 2 2 C0.1875 4 0.1875 4 -2 6 C-2.99 6 -3.98 6 -5 6 C-5 5.34 -5 4.68 -5 4 C-3.37373596 2.61767557 -1.7074998 1.28062485 0 0 Z " fill="currentColor" transform="translate(422,134)"/>
<path d="M0 0 C0.33 1.32 0.66 2.64 1 4 C0.01 4.66 -0.98 5.32 -2 6 C-2.66 5.67 -3.32 5.34 -4 5 C-3 2 -3 2 0 0 Z " fill="currentColor" transform="translate(432,122)"/>
<path d="M0 0 C0.33 0 0.66 0 1 0 C0.67 2.64 0.34 5.28 0 8 C-0.66 8 -1.32 8 -2 8 C-1.125 1.125 -1.125 1.125 0 0 Z " fill="currentColor" transform="translate(390,112)"/>
<path d="M0 0 C2.9375 0.8125 2.9375 0.8125 6 2 C6.33 2.99 6.66 3.98 7 5 C4.0625 4.1875 4.0625 4.1875 1 3 C0.67 2.01 0.34 1.02 0 0 Z " fill="currentColor" transform="translate(279,82)"/>
<path d="M0 0 C0 0.99 0 1.98 0 3 C-3.33333333 6 -3.33333333 6 -6 6 C-4.95125002 3.37812506 -4.35068687 2.20628639 -1.875 0.75 C-1.25625 0.5025 -0.6375 0.255 0 0 Z " fill="currentColor" transform="translate(262,82)"/>
<path d="M0 0 C4.875 1.75 4.875 1.75 6 4 C3.625 4.1875 3.625 4.1875 1 4 C0.34 3.01 -0.32 2.02 -1 1 C-0.67 0.67 -0.34 0.34 0 0 Z " fill="currentColor" transform="translate(52,70)"/>
<path d="M0 0 C0.66 0.33 1.32 0.66 2 1 C1.67 3.31 1.34 5.62 1 8 C0.34 8 -0.32 8 -1 8 C-1.04241723 5.66705225 -1.04092937 3.33297433 -1 1 C-0.67 0.67 -0.34 0.34 0 0 Z " fill="currentColor" transform="translate(189,64)"/>
<path d="M0 0 C0.75 1.75 0.75 1.75 1 4 C-0.9375 6.25 -0.9375 6.25 -3 8 C-2.25 2.25 -2.25 2.25 0 0 Z " fill="currentColor" transform="translate(193,56)"/>
<path d="M0 0 C0.66 0 1.32 0 2 0 C2.33 2.31 2.66 4.62 3 7 C2.34 7 1.68 7 1 7 C0.67 4.69 0.34 2.38 0 0 Z " fill="currentColor" transform="translate(173,359)"/>
<path d="M0 0 C3 1 3 1 5 4 C4.67 4.99 4.34 5.98 4 7 C2 5.1875 2 5.1875 0 3 C0 2.01 0 1.02 0 0 Z " fill="currentColor" transform="translate(152,256)"/>
<path d="M0 0 C0.66 0 1.32 0 2 0 C1.67 1.98 1.34 3.96 1 6 C0.01 6.33 -0.98 6.66 -2 7 C-1.34 4.69 -0.68 2.38 0 0 Z " fill="currentColor" transform="translate(284,240)"/>
<path d="M0 0 C0.33 0.99 0.66 1.98 1 3 C-0.3125 5.1875 -0.3125 5.1875 -2 7 C-2.66 7 -3.32 7 -4 7 C-3.43628586 3.73045798 -2.50037734 2.17424117 0 0 Z " fill="currentColor" transform="translate(367,153)"/>
<path d="M0 0 C0.99 0.33 1.98 0.66 3 1 C2.01 2.98 1.02 4.96 0 7 C-0.66 6.34 -1.32 5.68 -2 5 C-1.34 3.35 -0.68 1.7 0 0 Z " fill="currentColor" transform="translate(408,150)"/>
<path d="M0 0 C0.66 0 1.32 0 2 0 C2 2.31 2 4.62 2 7 C1.01 7.495 1.01 7.495 0 8 C-1.09658936 4.71023192 -0.79953138 3.28696233 0 0 Z " fill="currentColor" transform="translate(109,138)"/>
<path d="M0 0 C0.66 0 1.32 0 2 0 C0.75023244 3.65316671 0.32901247 4.78065836 -3 7 C-2.25 2.25 -2.25 2.25 0 0 Z " fill="currentColor" transform="translate(149,105)"/>
<path d="M0 0 C0.93065133 2.60582371 1.14917407 3.64198224 0.0625 6.25 C-0.4634375 7.11625 -0.4634375 7.11625 -1 8 C-1.33 8 -1.66 8 -2 8 C-1.125 1.125 -1.125 1.125 0 0 Z " fill="currentColor" transform="translate(293,244)"/>
<path d="M0 0 C0.66 0.33 1.32 0.66 2 1 C1.67 2.98 1.34 4.96 1 7 C0.34 7 -0.32 7 -1 7 C-1.04254356 5.00045254 -1.04080783 2.99958364 -1 1 C-0.67 0.67 -0.34 0.34 0 0 Z " fill="currentColor" transform="translate(185,62)"/>
<path d="M0 0 C0.33 1.32 0.66 2.64 1 4 C-0.65 4.33 -2.3 4.66 -4 5 C-2.25 1.125 -2.25 1.125 0 0 Z " fill="currentColor" transform="translate(374,276)"/>
<path d="M0 0 C0.66 0 1.32 0 2 0 C2.66 1.98 3.32 3.96 4 6 C3.01 5.67 2.02 5.34 1 5 C0.67 3.35 0.34 1.7 0 0 Z " fill="currentColor" transform="translate(217,267)"/>
<path d="M0 0 C-0.33 0.66 -0.66 1.32 -1 2 C-2.65 2 -4.3 2 -6 2 C-6 1.34 -6 0.68 -6 0 C-3.50907189 -1.24546405 -2.58919267 -0.7767578 0 0 Z " fill="currentColor" transform="translate(303,113)"/>
<path d="M0 0 C0.33 0 0.66 0 1 0 C1 2.31 1 4.62 1 7 C0.34 7 -0.32 7 -1 7 C-1.04254356 5.00045254 -1.04080783 2.99958364 -1 1 C-0.67 0.67 -0.34 0.34 0 0 Z " fill="currentColor" transform="translate(175,493)"/>
<path d="M0 0 C1.5 1.3125 1.5 1.3125 3 3 C3 3.99 3 4.98 3 6 C2.34 6 1.68 6 1 6 C0.34 4.35 -0.32 2.7 -1 1 C-0.67 0.67 -0.34 0.34 0 0 Z " fill="currentColor" transform="translate(311,236)"/>
<path d="M0 0 C0.99 0.33 1.98 0.66 3 1 C-0.75 4 -0.75 4 -3 4 C-2.67 3.01 -2.34 2.02 -2 1 C-1.34 0.67 -0.68 0.34 0 0 Z " fill="currentColor" transform="translate(121,125)"/>
<path d="M0 0 C0.99 0.33 1.98 0.66 3 1 C-0.75 4 -0.75 4 -3 4 C-2.67 3.01 -2.34 2.02 -2 1 C-1.34 0.67 -0.68 0.34 0 0 Z " fill="currentColor" transform="translate(165,91)"/>
<path d="M0 0 C1.125 3.75 1.125 3.75 0 6 C-0.66 6 -1.32 6 -2 6 C-1.125 1.125 -1.125 1.125 0 0 Z " fill="currentColor" transform="translate(182,316)"/>
<path d="M0 0 C1.32 0 2.64 0 4 0 C4 0.99 4 1.98 4 3 C2.68 3 1.36 3 0 3 C0 2.01 0 1.02 0 0 Z " fill="currentColor" transform="translate(273,269)"/>
<path d="M0 0 C0.66 0 1.32 0 2 0 C2 1.98 2 3.96 2 6 C1.34 6 0.68 6 0 6 C0 4.02 0 2.04 0 0 Z " fill="currentColor" transform="translate(274,257)"/>
<path d="M0 0 C2.475 0.495 2.475 0.495 5 1 C5 1.66 5 2.32 5 3 C3.35 2.67 1.7 2.34 0 2 C0 1.34 0 0.68 0 0 Z " fill="currentColor" transform="translate(128,122)"/>
<path d="M0 0 C0.33 0 0.66 0 1 0 C1 1.98 1 3.96 1 6 C0.01 6.495 0.01 6.495 -1 7 C-1.04254356 5.00045254 -1.04080783 2.99958364 -1 1 C-0.67 0.67 -0.34 0.34 0 0 Z " fill="currentColor" transform="translate(446,93)"/>
<path d="M0 0 C2.475 0.99 2.475 0.99 5 2 C5 2.66 5 3.32 5 4 C3.35 3.67 1.7 3.34 0 3 C0 2.01 0 1.02 0 0 Z " fill="currentColor" transform="translate(249,82)"/>
<path d="M0 0 C0.99 0.33 1.98 0.66 3 1 C1.625 2.5 1.625 2.5 0 4 C-0.66 4 -1.32 4 -2 4 C-2 3.01 -2 2.02 -2 1 C-1.34 0.67 -0.68 0.34 0 0 Z " fill="currentColor" transform="translate(432,66)"/>
<path d="M0 0 C0.66 0.33 1.32 0.66 2 1 C1.34 2.65 0.68 4.3 0 6 C-0.33 6 -0.66 6 -1 6 C-1.042721 4.33388095 -1.04063832 2.66617115 -1 1 C-0.67 0.67 -0.34 0.34 0 0 Z " fill="currentColor" transform="translate(164,410)"/>
<path d="M0 0 C0.66 0 1.32 0 2 0 C1.67 1.65 1.34 3.3 1 5 C0.34 4.67 -0.32 4.34 -1 4 C-0.67 2.68 -0.34 1.36 0 0 Z " fill="currentColor" transform="translate(294,239)"/>
<path d="M0 0 C0.99 0 1.98 0 3 0 C3.33 1.32 3.66 2.64 4 4 C2.68 3.34 1.36 2.68 0 2 C0 1.34 0 0.68 0 0 Z " fill="currentColor" transform="translate(117,163)"/>
<path d="M0 0 C0.99 0.33 1.98 0.66 3 1 C2.01 2.485 2.01 2.485 1 4 C0.34 4 -0.32 4 -1 4 C-0.67 2.68 -0.34 1.36 0 0 Z " fill="currentColor" transform="translate(314,141)"/>
<path d="M0 0 C1.98 0 3.96 0 6 0 C6 0.66 6 1.32 6 2 C4.35 2 2.7 2 1 2 C0.67 1.34 0.34 0.68 0 0 Z " fill="currentColor" transform="translate(321,124)"/>
<path d="M0 0 C0.66 0 1.32 0 2 0 C1.34 1.65 0.68 3.3 0 5 C-0.66 4.34 -1.32 3.68 -2 3 C-1.34 2.01 -0.68 1.02 0 0 Z " fill="currentColor" transform="translate(197,48)"/>
<path d="M0 0 C0.66 0.33 1.32 0.66 2 1 C2 2.32 2 3.64 2 5 C1.34 5 0.68 5 0 5 C-0.5625 3.0625 -0.5625 3.0625 -1 1 C-0.67 0.67 -0.34 0.34 0 0 Z " fill="currentColor" transform="translate(323,211)"/>
<path d="M0 0 C0.33 1.32 0.66 2.64 1 4 C0.01 4.33 -0.98 4.66 -2 5 C-1.34 3.35 -0.68 1.7 0 0 Z " fill="currentColor" transform="translate(382,110)"/>
<path d="M0 0 C0.66 0 1.32 0 2 0 C1.34 1.32 0.68 2.64 0 4 C-0.66 4 -1.32 4 -2 4 C-1.34 2.68 -0.68 1.36 0 0 Z " fill="currentColor" transform="translate(156,97)"/>
<path d="M0 0 C0.66 0 1.32 0 2 0 C2 1.65 2 3.3 2 5 C1.34 4.67 0.68 4.34 0 4 C0 2.68 0 1.36 0 0 Z " fill="currentColor" transform="translate(371,482)"/>
<path d="M0 0 C0.99 0 1.98 0 3 0 C3 0.66 3 1.32 3 2 C1.68 2.33 0.36 2.66 -1 3 C-0.67 2.01 -0.34 1.02 0 0 Z " fill="currentColor" transform="translate(206,298)"/>
<path d="M0 0 C0.66 0 1.32 0 2 0 C1.34 1.32 0.68 2.64 0 4 C-0.66 4 -1.32 4 -2 4 C-2 3.34 -2 2.68 -2 2 C-1.34 2 -0.68 2 0 2 C0 1.34 0 0.68 0 0 Z " fill="currentColor" transform="translate(313,246)"/>
<path d="M0 0 C0.66 0 1.32 0 2 0 C1.67 1.32 1.34 2.64 1 4 C0.34 4 -0.32 4 -1 4 C-0.67 2.68 -0.34 1.36 0 0 Z " fill="currentColor" transform="translate(112,130)"/>
<path d="M0 0 C1.65 0 3.3 0 5 0 C4.67 0.66 4.34 1.32 4 2 C2.68 2 1.36 2 0 2 C0 1.34 0 0.68 0 0 Z " fill="currentColor" transform="translate(173,88)"/>
<path d="M0 0 C0.99 0.495 0.99 0.495 2 1 C2 2.32 2 3.64 2 5 C1.34 5 0.68 5 0 5 C0 3.35 0 1.7 0 0 Z " fill="currentColor" transform="translate(188,75)"/>
<path d="M0 0 C0.33 0.99 0.66 1.98 1 3 C-0.32 3.33 -1.64 3.66 -3 4 C-2.01 2.68 -1.02 1.36 0 0 Z " fill="currentColor" transform="translate(192,49)"/>
<path d="M0 0 C0.66 1.32 1.32 2.64 2 4 C1.01 3.67 0.02 3.34 -1 3 C-0.67 2.01 -0.34 1.02 0 0 Z " fill="currentColor" transform="translate(264,270)"/>
<path d="M0 0 C1.32 0 2.64 0 4 0 C4 0.66 4 1.32 4 2 C2.68 2 1.36 2 0 2 C0 1.34 0 0.68 0 0 Z " fill="currentColor" transform="translate(268,270)"/>
<path d="M0 0 C0.99 0.99 1.98 1.98 3 3 C2.01 3 1.02 3 0 3 C0 2.01 0 1.02 0 0 Z " fill="currentColor" transform="translate(384,257)"/>
<path d="M0 0 C0.66 0 1.32 0 2 0 C2 1.32 2 2.64 2 4 C1.34 4 0.68 4 0 4 C0 2.68 0 1.36 0 0 Z " fill="currentColor" transform="translate(149,250)"/>
<path d="M0 0 C0.66 0 1.32 0 2 0 C2 0.99 2 1.98 2 3 C1.01 2.67 0.02 2.34 -1 2 C-0.67 1.34 -0.34 0.68 0 0 Z " fill="currentColor" transform="translate(297,259)"/>
<path d="M0 0 C0.99 0.33 1.98 0.66 3 1 C2.67 1.66 2.34 2.32 2 3 C1.34 3 0.68 3 0 3 C0 2.01 0 1.02 0 0 Z " fill="currentColor" transform="translate(285,235)"/>
<path d="M0 0 C0.66 0 1.32 0 2 0 C1.67 0.99 1.34 1.98 1 3 C0.34 3 -0.32 3 -1 3 C-0.67 2.01 -0.34 1.02 0 0 Z " fill="currentColor" transform="translate(371,147)"/>
<path d="M0 0 C1.32 0.33 2.64 0.66 4 1 C2.68 1.33 1.36 1.66 0 2 C0 1.34 0 0.68 0 0 Z " fill="currentColor" transform="translate(180,87)"/>
<path d="M0 0 C0.99 0.495 0.99 0.495 2 1 C1.67 1.99 1.34 2.98 1 4 C0.67 2.68 0.34 1.36 0 0 Z " fill="currentColor" transform="translate(337,351)"/>
<path d="M0 0 C0.99 0 1.98 0 3 0 C3 0.66 3 1.32 3 2 C2.01 2 1.02 2 0 2 C0 1.34 0 0.68 0 0 Z " fill="currentColor" transform="translate(135,126)"/>
<path d="M0 0 C0.66 0.66 1.32 1.32 2 2 C1.01 2.33 0.02 2.66 -1 3 C-0.67 2.01 -0.34 1.02 0 0 Z " fill="currentColor" transform="translate(412,85)"/>
<path d="M0 0 C0.66 0 1.32 0 2 0 C1.67 0.99 1.34 1.98 1 3 C0.67 2.01 0.34 1.02 0 0 Z " fill="currentColor" transform="translate(189,82)"/>
<path d="M0 0 C0.66 0 1.32 0 2 0 C2 0.66 2 1.32 2 2 C1.01 1.67 0.02 1.34 -1 1 C-0.67 0.67 -0.34 0.34 0 0 Z " fill="currentColor" transform="translate(202,44)"/>
<path d="M0 0 C0.66 0.66 1.32 1.32 2 2 C1.01 1.67 0.02 1.34 -1 1 C-0.67 0.67 -0.34 0.34 0 0 Z " fill="currentColor" transform="translate(380,498)"/>
<path d="M0 0 C0.66 0 1.32 0 2 0 C2 0.66 2 1.32 2 2 C1.34 2 0.68 2 0 2 C0 1.34 0 0.68 0 0 Z " fill="currentColor" transform="translate(215,265)"/>
<path d="M0 0 C0.66 0 1.32 0 2 0 C2 0.66 2 1.32 2 2 C1.34 2 0.68 2 0 2 C0 1.34 0 0.68 0 0 Z " fill="currentColor" transform="translate(433,75)"/>
<path d="M0 0 C0.66 0 1.32 0 2 0 C1.67 0.66 1.34 1.32 1 2 C0.67 1.34 0.34 0.68 0 0 Z " fill="currentColor" transform="translate(373,145)"/>
</svg>
